<?xml version="1.0" encoding="utf-8"?>
<!-- Generator: Adobe Illustrator 24.0.0, SVG Export Plug-In . SVG Version: 6.00 Build 0)  -->
<svg version="1.1" id="Capa_1" xmlns="http://www.w3.org/2000/svg" xmlns:xlink="http://www.w3.org/1999/xlink" x="0px" y="0px"
	 viewBox="0 0 21.5 20.9" style="enable-background:new 0 0 21.5 20.9;" xml:space="preserve">
<style type="text/css">
	.st0{fill-rule:evenodd;clip-rule:evenodd;}
</style>
<title>+</title>
<g id="_x31_4-PROMOCIONES">
	<g id="Artboard" transform="translate(-971.000000, -726.000000)">
		<g id="_x2B_" transform="translate(972.000000, 726.793269)">
			<path id="Fill-4" class="st0" d="M15.7,9.6h-5v-5c0-0.3-0.3-0.6-0.6-0.6S9.4,4.2,9.4,4.6v5h-5c-0.3,0-0.6,0.3-0.6,0.6
				c0,0.3,0.3,0.6,0.6,0.6h5v5c0,0.3,0.3,0.6,0.6,0.6s0.6-0.3,0.6-0.6v-5h5c0.3,0,0.6-0.3,0.6-0.6C16.3,9.9,16,9.6,15.7,9.6"/>
		</g>
	</g>
</g>
</svg>
